<mxfile host="app.diagrams.net" modified="2022-04-07T02:59:16.970Z" agent="5.0 (Macintosh; Intel Mac OS X 10_15_7) AppleWebKit/537.36 (KHTML, like Gecko) Chrome/100.0.4896.60 Safari/537.36" etag="Z_JzRoWQBw8tDyXkMXMY" version="17.4.0" type="github">
  <diagram id="M9gP0iL7Iol46Djj5Ob1" name="Page-1">
    <mxGraphModel dx="1694" dy="2010" grid="1" gridSize="10" guides="1" tooltips="1" connect="1" arrows="1" fold="1" page="1" pageScale="1" pageWidth="827" pageHeight="1169" math="0" shadow="0">
      <root>
        <mxCell id="0" />
        <mxCell id="1" parent="0" />
        <mxCell id="CVT4ZNlW-QMvGA7VsB1M-32" value="" style="group" vertex="1" connectable="0" parent="1">
          <mxGeometry x="10" y="80" width="490" height="610" as="geometry" />
        </mxCell>
        <mxCell id="CVT4ZNlW-QMvGA7VsB1M-1" value="&lt;font style=&quot;font-size: 16px&quot;&gt;video&lt;/font&gt;" style="rounded=1;whiteSpace=wrap;html=1;fillColor=#fff2cc;strokeColor=#d6b656;" vertex="1" parent="CVT4ZNlW-QMvGA7VsB1M-32">
          <mxGeometry x="10" y="240" width="80" height="40" as="geometry" />
        </mxCell>
        <mxCell id="CVT4ZNlW-QMvGA7VsB1M-2" value="车辆识别跟踪" style="rounded=1;whiteSpace=wrap;html=1;fontSize=16;fillColor=#d5e8d4;strokeColor=#82b366;" vertex="1" parent="CVT4ZNlW-QMvGA7VsB1M-32">
          <mxGeometry x="110" y="50" width="120" height="60" as="geometry" />
        </mxCell>
        <mxCell id="CVT4ZNlW-QMvGA7VsB1M-3" value="车道线检测" style="rounded=1;whiteSpace=wrap;html=1;fontSize=16;fillColor=#d5e8d4;strokeColor=#82b366;" vertex="1" parent="CVT4ZNlW-QMvGA7VsB1M-32">
          <mxGeometry x="110" y="400" width="120" height="60" as="geometry" />
        </mxCell>
        <mxCell id="CVT4ZNlW-QMvGA7VsB1M-5" value="tracking data" style="rounded=1;whiteSpace=wrap;html=1;fontSize=16;fillColor=#fff2cc;strokeColor=#d6b656;" vertex="1" parent="CVT4ZNlW-QMvGA7VsB1M-32">
          <mxGeometry x="370" y="240" width="100" height="40" as="geometry" />
        </mxCell>
        <mxCell id="CVT4ZNlW-QMvGA7VsB1M-6" value="逐帧" style="text;strokeColor=none;fillColor=none;align=center;verticalAlign=middle;spacingLeft=4;spacingRight=4;overflow=hidden;points=[[0,0.5],[1,0.5]];portConstraint=eastwest;rotatable=0;fontSize=16;" vertex="1" parent="CVT4ZNlW-QMvGA7VsB1M-32">
          <mxGeometry x="145" y="247.5" width="50" height="25" as="geometry" />
        </mxCell>
        <mxCell id="CVT4ZNlW-QMvGA7VsB1M-8" value="" style="endArrow=none;html=1;rounded=0;fontSize=16;exitX=1;exitY=0.5;exitDx=0;exitDy=0;" edge="1" parent="CVT4ZNlW-QMvGA7VsB1M-32" source="CVT4ZNlW-QMvGA7VsB1M-1" target="CVT4ZNlW-QMvGA7VsB1M-6">
          <mxGeometry width="50" height="50" relative="1" as="geometry">
            <mxPoint x="90" y="260" as="sourcePoint" />
            <mxPoint x="270" y="260" as="targetPoint" />
          </mxGeometry>
        </mxCell>
        <mxCell id="CVT4ZNlW-QMvGA7VsB1M-9" value="" style="endArrow=classic;html=1;rounded=0;fontSize=16;exitX=0.5;exitY=1;exitDx=0;exitDy=0;entryX=0.52;entryY=-0.16;entryDx=0;entryDy=0;entryPerimeter=0;" edge="1" parent="CVT4ZNlW-QMvGA7VsB1M-32" source="CVT4ZNlW-QMvGA7VsB1M-2" target="CVT4ZNlW-QMvGA7VsB1M-6">
          <mxGeometry width="50" height="50" relative="1" as="geometry">
            <mxPoint x="380" y="300" as="sourcePoint" />
            <mxPoint x="430" y="250" as="targetPoint" />
          </mxGeometry>
        </mxCell>
        <mxCell id="CVT4ZNlW-QMvGA7VsB1M-4" value="" style="endArrow=none;html=1;rounded=0;fontSize=16;exitX=1;exitY=0.5;exitDx=0;exitDy=0;startArrow=none;entryX=0;entryY=0.5;entryDx=0;entryDy=0;" edge="1" parent="CVT4ZNlW-QMvGA7VsB1M-32" source="CVT4ZNlW-QMvGA7VsB1M-6" target="CVT4ZNlW-QMvGA7VsB1M-5">
          <mxGeometry width="50" height="50" relative="1" as="geometry">
            <mxPoint x="380" y="300" as="sourcePoint" />
            <mxPoint x="270" y="260" as="targetPoint" />
          </mxGeometry>
        </mxCell>
        <mxCell id="CVT4ZNlW-QMvGA7VsB1M-10" value="" style="endArrow=classic;html=1;rounded=0;fontSize=16;exitX=0.5;exitY=0;exitDx=0;exitDy=0;entryX=0.48;entryY=1;entryDx=0;entryDy=0;entryPerimeter=0;" edge="1" parent="CVT4ZNlW-QMvGA7VsB1M-32" source="CVT4ZNlW-QMvGA7VsB1M-3" target="CVT4ZNlW-QMvGA7VsB1M-6">
          <mxGeometry width="50" height="50" relative="1" as="geometry">
            <mxPoint x="180" y="210" as="sourcePoint" />
            <mxPoint x="181" y="253.5" as="targetPoint" />
          </mxGeometry>
        </mxCell>
        <mxCell id="CVT4ZNlW-QMvGA7VsB1M-11" value="Yolov5 + FairMOT" style="text;strokeColor=none;fillColor=none;align=left;verticalAlign=middle;spacingLeft=4;spacingRight=4;overflow=hidden;points=[[0,0.5],[1,0.5]];portConstraint=eastwest;rotatable=0;fontSize=16;" vertex="1" parent="CVT4ZNlW-QMvGA7VsB1M-32">
          <mxGeometry x="100" y="10" width="140" height="30" as="geometry" />
        </mxCell>
        <mxCell id="CVT4ZNlW-QMvGA7VsB1M-12" value="SCNN&#xa;Ultra-Fast-Lane-Detection" style="text;strokeColor=none;fillColor=none;align=center;verticalAlign=middle;spacingLeft=4;spacingRight=4;overflow=hidden;points=[[0,0.5],[1,0.5]];portConstraint=eastwest;rotatable=0;fontSize=16;" vertex="1" parent="CVT4ZNlW-QMvGA7VsB1M-32">
          <mxGeometry x="70" y="460" width="200" height="50" as="geometry" />
        </mxCell>
        <mxCell id="CVT4ZNlW-QMvGA7VsB1M-20" value="&lt;table border=&quot;1&quot; width=&quot;100%&quot; cellpadding=&quot;4&quot; style=&quot;width: 100% ; height: 100% ; border-collapse: collapse&quot;&gt;&lt;tbody&gt;&lt;tr&gt;&lt;th align=&quot;center&quot;&gt;bbox info&lt;/th&gt;&lt;/tr&gt;&lt;tr&gt;&lt;td align=&quot;center&quot;&gt;id，conf&lt;br&gt;x_center，y_center&lt;/td&gt;&lt;/tr&gt;&lt;tr&gt;&lt;td align=&quot;center&quot;&gt;width，height&lt;/td&gt;&lt;/tr&gt;&lt;/tbody&gt;&lt;/table&gt;" style="text;html=1;strokeColor=default;fillColor=none;overflow=fill;fontSize=16;strokeWidth=0.5;" vertex="1" parent="CVT4ZNlW-QMvGA7VsB1M-32">
          <mxGeometry x="180" y="120" width="150" height="107.5" as="geometry" />
        </mxCell>
        <mxCell id="CVT4ZNlW-QMvGA7VsB1M-22" value="&lt;table border=&quot;1&quot; width=&quot;100%&quot; cellpadding=&quot;4&quot; style=&quot;width: 100% ; height: 100% ; border-collapse: collapse&quot;&gt;&lt;tbody&gt;&lt;tr&gt;&lt;th align=&quot;center&quot;&gt;lanedetect info&lt;/th&gt;&lt;/tr&gt;&lt;tr&gt;&lt;td align=&quot;center&quot;&gt;list( row anchor )&lt;br&gt;&lt;/td&gt;&lt;/tr&gt;&lt;tr&gt;&lt;td align=&quot;center&quot;&gt;rows width&lt;/td&gt;&lt;/tr&gt;&lt;/tbody&gt;&lt;/table&gt;" style="text;html=1;strokeColor=default;fillColor=none;overflow=fill;fontSize=16;strokeWidth=0.3;" vertex="1" parent="CVT4ZNlW-QMvGA7VsB1M-32">
          <mxGeometry x="180" y="280" width="150" height="107.5" as="geometry" />
        </mxCell>
        <mxCell id="CVT4ZNlW-QMvGA7VsB1M-25" value="" style="endArrow=none;dashed=1;html=1;dashPattern=1 3;strokeWidth=2;rounded=0;fontSize=16;" edge="1" parent="CVT4ZNlW-QMvGA7VsB1M-32">
          <mxGeometry width="50" height="50" relative="1" as="geometry">
            <mxPoint y="520" as="sourcePoint" />
            <mxPoint as="targetPoint" />
          </mxGeometry>
        </mxCell>
        <mxCell id="CVT4ZNlW-QMvGA7VsB1M-26" value="" style="endArrow=none;dashed=1;html=1;dashPattern=1 3;strokeWidth=2;rounded=0;fontSize=16;" edge="1" parent="CVT4ZNlW-QMvGA7VsB1M-32">
          <mxGeometry width="50" height="50" relative="1" as="geometry">
            <mxPoint x="350" y="520" as="sourcePoint" />
            <mxPoint x="350" as="targetPoint" />
          </mxGeometry>
        </mxCell>
        <mxCell id="CVT4ZNlW-QMvGA7VsB1M-28" value="" style="endArrow=none;dashed=1;html=1;dashPattern=1 3;strokeWidth=2;rounded=0;fontSize=16;" edge="1" parent="CVT4ZNlW-QMvGA7VsB1M-32">
          <mxGeometry width="50" height="50" relative="1" as="geometry">
            <mxPoint y="522" as="sourcePoint" />
            <mxPoint x="350" y="520" as="targetPoint" />
          </mxGeometry>
        </mxCell>
        <mxCell id="CVT4ZNlW-QMvGA7VsB1M-29" value="" style="endArrow=none;dashed=1;html=1;dashPattern=1 3;strokeWidth=2;rounded=0;fontSize=16;" edge="1" parent="CVT4ZNlW-QMvGA7VsB1M-32">
          <mxGeometry width="50" height="50" relative="1" as="geometry">
            <mxPoint y="2" as="sourcePoint" />
            <mxPoint x="350" as="targetPoint" />
          </mxGeometry>
        </mxCell>
        <mxCell id="CVT4ZNlW-QMvGA7VsB1M-30" value="&lt;p style=&quot;line-height: 0.5&quot;&gt;&lt;/p&gt;&lt;h1&gt;&lt;font style=&quot;font-size: 24px&quot;&gt;视觉目标检测与跟踪&lt;/font&gt;&lt;/h1&gt;&lt;p&gt;&lt;/p&gt;" style="text;html=1;strokeColor=none;fillColor=none;spacing=5;spacingTop=-20;whiteSpace=wrap;overflow=hidden;rounded=0;fontSize=16;align=center;" vertex="1" parent="CVT4ZNlW-QMvGA7VsB1M-32">
          <mxGeometry y="510" width="340" height="100" as="geometry" />
        </mxCell>
        <mxCell id="CVT4ZNlW-QMvGA7VsB1M-31" value="&lt;p style=&quot;line-height: 0.5&quot;&gt;&lt;/p&gt;&lt;h1&gt;&lt;br&gt;&lt;/h1&gt;&lt;div&gt;&lt;font style=&quot;font-size: 20px&quot;&gt;tracking by detection&lt;/font&gt;&lt;/div&gt;&lt;p&gt;&lt;/p&gt;" style="text;html=1;strokeColor=none;fillColor=none;spacing=5;spacingTop=-20;whiteSpace=wrap;overflow=hidden;rounded=0;fontSize=16;align=center;" vertex="1" parent="CVT4ZNlW-QMvGA7VsB1M-32">
          <mxGeometry y="490" width="340" height="120" as="geometry" />
        </mxCell>
        <mxCell id="CVT4ZNlW-QMvGA7VsB1M-87" value="&lt;span style=&quot;color: rgb(51 , 51 , 51) ; font-family: &amp;#34;open sans&amp;#34; , &amp;#34;clear sans&amp;#34; , &amp;#34;helvetica neue&amp;#34; , &amp;#34;helvetica&amp;#34; , &amp;#34;arial&amp;#34; , &amp;#34;segoe ui emoji&amp;#34; , sans-serif ; background-color: rgb(255 , 255 , 255)&quot;&gt;时间轨迹序列&lt;/span&gt;" style="text;html=1;strokeColor=none;fillColor=none;align=center;verticalAlign=middle;whiteSpace=wrap;rounded=0;fontSize=16;" vertex="1" parent="CVT4ZNlW-QMvGA7VsB1M-32">
          <mxGeometry x="365" y="290" width="110" height="20" as="geometry" />
        </mxCell>
        <mxCell id="CVT4ZNlW-QMvGA7VsB1M-88" value="&lt;font style=&quot;font-size: 16px&quot;&gt;dataset&lt;br&gt;kitti tracking&lt;br&gt;&lt;/font&gt;" style="text;html=1;strokeColor=none;fillColor=none;align=center;verticalAlign=middle;whiteSpace=wrap;rounded=0;fontSize=24;" vertex="1" parent="CVT4ZNlW-QMvGA7VsB1M-32">
          <mxGeometry y="197.5" width="110" height="30" as="geometry" />
        </mxCell>
        <mxCell id="CVT4ZNlW-QMvGA7VsB1M-39" style="edgeStyle=orthogonalEdgeStyle;rounded=0;orthogonalLoop=1;jettySize=auto;html=1;exitX=0.5;exitY=1;exitDx=0;exitDy=0;fontSize=16;" edge="1" parent="1" source="CVT4ZNlW-QMvGA7VsB1M-36">
          <mxGeometry relative="1" as="geometry">
            <mxPoint x="570" y="340" as="targetPoint" />
            <Array as="points">
              <mxPoint x="570" y="320" />
              <mxPoint x="570" y="320" />
            </Array>
          </mxGeometry>
        </mxCell>
        <mxCell id="CVT4ZNlW-QMvGA7VsB1M-36" value="&lt;font style=&quot;font-size: 16px&quot;&gt;补全&lt;/font&gt;" style="rounded=1;whiteSpace=wrap;html=1;fontSize=20;strokeColor=#6c8ebf;strokeWidth=0.3;fillColor=#dae8fc;" vertex="1" parent="1">
          <mxGeometry x="510" y="230" width="120" height="60" as="geometry" />
        </mxCell>
        <mxCell id="CVT4ZNlW-QMvGA7VsB1M-40" style="edgeStyle=orthogonalEdgeStyle;rounded=0;orthogonalLoop=1;jettySize=auto;html=1;exitX=0.5;exitY=0;exitDx=0;exitDy=0;fontSize=16;" edge="1" parent="1" source="CVT4ZNlW-QMvGA7VsB1M-37">
          <mxGeometry relative="1" as="geometry">
            <mxPoint x="570" y="340" as="targetPoint" />
          </mxGeometry>
        </mxCell>
        <mxCell id="CVT4ZNlW-QMvGA7VsB1M-37" value="&lt;font style=&quot;font-size: 16px&quot;&gt;归一化&lt;/font&gt;" style="rounded=1;whiteSpace=wrap;html=1;fontSize=20;strokeColor=#6c8ebf;strokeWidth=0.3;fillColor=#dae8fc;" vertex="1" parent="1">
          <mxGeometry x="510" y="390" width="120" height="60" as="geometry" />
        </mxCell>
        <mxCell id="CVT4ZNlW-QMvGA7VsB1M-41" value="history track" style="rounded=1;whiteSpace=wrap;html=1;fontSize=16;fillColor=#fff2cc;strokeColor=#d6b656;" vertex="1" parent="1">
          <mxGeometry x="680" y="320" width="100" height="40" as="geometry" />
        </mxCell>
        <mxCell id="CVT4ZNlW-QMvGA7VsB1M-44" value="" style="endArrow=none;html=1;rounded=0;fontSize=16;exitX=1;exitY=0.5;exitDx=0;exitDy=0;entryX=0;entryY=0.5;entryDx=0;entryDy=0;" edge="1" parent="1" source="CVT4ZNlW-QMvGA7VsB1M-5" target="CVT4ZNlW-QMvGA7VsB1M-41">
          <mxGeometry width="50" height="50" relative="1" as="geometry">
            <mxPoint x="530" y="400" as="sourcePoint" />
            <mxPoint x="580" y="350" as="targetPoint" />
          </mxGeometry>
        </mxCell>
        <mxCell id="CVT4ZNlW-QMvGA7VsB1M-48" value="2D" style="text;html=1;strokeColor=none;fillColor=none;align=center;verticalAlign=middle;whiteSpace=wrap;rounded=0;fontSize=16;" vertex="1" parent="1">
          <mxGeometry x="700" y="360" width="60" height="30" as="geometry" />
        </mxCell>
        <mxCell id="CVT4ZNlW-QMvGA7VsB1M-50" value="" style="endArrow=classic;html=1;rounded=0;fontSize=16;exitX=1;exitY=0.5;exitDx=0;exitDy=0;" edge="1" parent="1">
          <mxGeometry width="50" height="50" relative="1" as="geometry">
            <mxPoint x="780" y="342.5" as="sourcePoint" />
            <mxPoint x="850" y="242.5" as="targetPoint" />
          </mxGeometry>
        </mxCell>
        <mxCell id="CVT4ZNlW-QMvGA7VsB1M-51" value="" style="endArrow=classic;html=1;rounded=0;fontSize=16;" edge="1" parent="1">
          <mxGeometry width="50" height="50" relative="1" as="geometry">
            <mxPoint x="780" y="340" as="sourcePoint" />
            <mxPoint x="850" y="440" as="targetPoint" />
          </mxGeometry>
        </mxCell>
        <mxCell id="CVT4ZNlW-QMvGA7VsB1M-56" value="horizontal track" style="rounded=1;whiteSpace=wrap;html=1;fontSize=16;fillColor=#fff2cc;strokeColor=#d6b656;" vertex="1" parent="1">
          <mxGeometry x="850" y="213" width="120" height="50" as="geometry" />
        </mxCell>
        <mxCell id="CVT4ZNlW-QMvGA7VsB1M-57" value="vertical track" style="rounded=1;whiteSpace=wrap;html=1;fontSize=16;fillColor=#fff2cc;strokeColor=#d6b656;" vertex="1" parent="1">
          <mxGeometry x="850" y="417" width="120" height="50" as="geometry" />
        </mxCell>
        <mxCell id="CVT4ZNlW-QMvGA7VsB1M-59" style="edgeStyle=orthogonalEdgeStyle;rounded=0;orthogonalLoop=1;jettySize=auto;html=1;exitX=0.5;exitY=0;exitDx=0;exitDy=0;fontSize=16;entryX=0.5;entryY=1;entryDx=0;entryDy=0;startArrow=none;" edge="1" parent="1" source="CVT4ZNlW-QMvGA7VsB1M-64" target="CVT4ZNlW-QMvGA7VsB1M-56">
          <mxGeometry relative="1" as="geometry">
            <mxPoint x="930" y="267" as="targetPoint" />
          </mxGeometry>
        </mxCell>
        <mxCell id="CVT4ZNlW-QMvGA7VsB1M-60" style="edgeStyle=orthogonalEdgeStyle;rounded=0;orthogonalLoop=1;jettySize=auto;html=1;exitX=0.5;exitY=1;exitDx=0;exitDy=0;fontSize=16;entryX=0.5;entryY=0;entryDx=0;entryDy=0;" edge="1" parent="1" source="CVT4ZNlW-QMvGA7VsB1M-58" target="CVT4ZNlW-QMvGA7VsB1M-57">
          <mxGeometry relative="1" as="geometry">
            <mxPoint x="910" y="407" as="targetPoint" />
          </mxGeometry>
        </mxCell>
        <mxCell id="CVT4ZNlW-QMvGA7VsB1M-58" value="&lt;font style=&quot;font-size: 16px&quot;&gt;行为意图预测&lt;/font&gt;" style="rounded=1;whiteSpace=wrap;html=1;fontSize=20;strokeColor=#6c8ebf;strokeWidth=0.3;fillColor=#dae8fc;" vertex="1" parent="1">
          <mxGeometry x="850" y="307" width="120" height="60" as="geometry" />
        </mxCell>
        <mxCell id="CVT4ZNlW-QMvGA7VsB1M-61" value="" style="endArrow=classic;html=1;rounded=0;fontSize=16;" edge="1" parent="1">
          <mxGeometry width="50" height="50" relative="1" as="geometry">
            <mxPoint x="970" y="237" as="sourcePoint" />
            <mxPoint x="1030" y="337" as="targetPoint" />
            <Array as="points">
              <mxPoint x="970" y="237" />
            </Array>
          </mxGeometry>
        </mxCell>
        <mxCell id="CVT4ZNlW-QMvGA7VsB1M-62" value="" style="endArrow=classic;html=1;rounded=0;fontSize=16;exitX=1;exitY=0.5;exitDx=0;exitDy=0;" edge="1" parent="1" source="CVT4ZNlW-QMvGA7VsB1M-57">
          <mxGeometry width="50" height="50" relative="1" as="geometry">
            <mxPoint x="1070" y="337" as="sourcePoint" />
            <mxPoint x="1030" y="337" as="targetPoint" />
          </mxGeometry>
        </mxCell>
        <mxCell id="CVT4ZNlW-QMvGA7VsB1M-82" style="edgeStyle=orthogonalEdgeStyle;rounded=0;orthogonalLoop=1;jettySize=auto;html=1;exitX=1;exitY=0.5;exitDx=0;exitDy=0;fontSize=24;" edge="1" parent="1" source="CVT4ZNlW-QMvGA7VsB1M-63">
          <mxGeometry relative="1" as="geometry">
            <mxPoint x="1180" y="340.42857142857156" as="targetPoint" />
          </mxGeometry>
        </mxCell>
        <mxCell id="CVT4ZNlW-QMvGA7VsB1M-63" value="behavior" style="rounded=1;whiteSpace=wrap;html=1;fontSize=16;fillColor=#fff2cc;strokeColor=#d6b656;" vertex="1" parent="1">
          <mxGeometry x="1030" y="320" width="100" height="40" as="geometry" />
        </mxCell>
        <mxCell id="CVT4ZNlW-QMvGA7VsB1M-64" value="PSRNet" style="text;strokeColor=none;fillColor=none;align=center;verticalAlign=middle;spacingLeft=4;spacingRight=4;overflow=hidden;points=[[0,0.5],[1,0.5]];portConstraint=eastwest;rotatable=0;fontSize=16;" vertex="1" parent="1">
          <mxGeometry x="840" y="274.5" width="140" height="30" as="geometry" />
        </mxCell>
        <mxCell id="CVT4ZNlW-QMvGA7VsB1M-68" value="" style="edgeStyle=orthogonalEdgeStyle;rounded=0;orthogonalLoop=1;jettySize=auto;html=1;exitX=0.5;exitY=0;exitDx=0;exitDy=0;fontSize=16;entryX=0.5;entryY=1;entryDx=0;entryDy=0;endArrow=none;" edge="1" parent="1" source="CVT4ZNlW-QMvGA7VsB1M-58" target="CVT4ZNlW-QMvGA7VsB1M-64">
          <mxGeometry relative="1" as="geometry">
            <mxPoint x="910" y="307" as="sourcePoint" />
            <mxPoint x="910" y="263" as="targetPoint" />
          </mxGeometry>
        </mxCell>
        <mxCell id="CVT4ZNlW-QMvGA7VsB1M-69" value="" style="endArrow=none;dashed=1;html=1;dashPattern=1 3;strokeWidth=2;rounded=0;fontSize=16;" edge="1" parent="1">
          <mxGeometry width="50" height="50" relative="1" as="geometry">
            <mxPoint x="499.9999999999998" y="600" as="sourcePoint" />
            <mxPoint x="499.9999999999998" y="80" as="targetPoint" />
          </mxGeometry>
        </mxCell>
        <mxCell id="CVT4ZNlW-QMvGA7VsB1M-70" value="" style="endArrow=none;dashed=1;html=1;dashPattern=1 3;strokeWidth=2;rounded=0;fontSize=16;" edge="1" parent="1">
          <mxGeometry width="50" height="50" relative="1" as="geometry">
            <mxPoint x="1009.9999999999998" y="600" as="sourcePoint" />
            <mxPoint x="1009.9999999999998" y="80" as="targetPoint" />
          </mxGeometry>
        </mxCell>
        <mxCell id="CVT4ZNlW-QMvGA7VsB1M-71" value="" style="endArrow=none;dashed=1;html=1;dashPattern=1 3;strokeWidth=2;rounded=0;fontSize=16;" edge="1" parent="1">
          <mxGeometry width="50" height="50" relative="1" as="geometry">
            <mxPoint x="500" y="600" as="sourcePoint" />
            <mxPoint x="1010" y="600" as="targetPoint" />
          </mxGeometry>
        </mxCell>
        <mxCell id="CVT4ZNlW-QMvGA7VsB1M-72" value="" style="endArrow=none;dashed=1;html=1;dashPattern=1 3;strokeWidth=2;rounded=0;fontSize=16;" edge="1" parent="1">
          <mxGeometry width="50" height="50" relative="1" as="geometry">
            <mxPoint x="500" y="80" as="sourcePoint" />
            <mxPoint x="1010" y="80" as="targetPoint" />
          </mxGeometry>
        </mxCell>
        <mxCell id="CVT4ZNlW-QMvGA7VsB1M-73" value="&lt;p style=&quot;line-height: 0.5&quot;&gt;&lt;/p&gt;&lt;h1&gt;&lt;font style=&quot;font-size: 24px&quot;&gt;轨迹补全与行为意图预测&lt;/font&gt;&lt;/h1&gt;&lt;p&gt;&lt;/p&gt;" style="text;html=1;strokeColor=none;fillColor=none;spacing=5;spacingTop=-20;whiteSpace=wrap;overflow=hidden;rounded=0;fontSize=16;align=center;" vertex="1" parent="1">
          <mxGeometry x="540" y="590" width="420" height="120" as="geometry" />
        </mxCell>
        <mxCell id="CVT4ZNlW-QMvGA7VsB1M-74" value="&lt;p style=&quot;line-height: 0.5&quot;&gt;&lt;/p&gt;&lt;h1&gt;&lt;br&gt;&lt;/h1&gt;&lt;div&gt;&lt;font style=&quot;font-size: 20px&quot;&gt;behavior prediction&lt;/font&gt;&lt;/div&gt;&lt;p&gt;&lt;/p&gt;" style="text;html=1;strokeColor=none;fillColor=none;spacing=5;spacingTop=-20;whiteSpace=wrap;overflow=hidden;rounded=0;fontSize=16;align=center;" vertex="1" parent="1">
          <mxGeometry x="530" y="570" width="420" height="120" as="geometry" />
        </mxCell>
        <mxCell id="CVT4ZNlW-QMvGA7VsB1M-85" style="edgeStyle=orthogonalEdgeStyle;rounded=0;orthogonalLoop=1;jettySize=auto;html=1;exitX=0.5;exitY=1;exitDx=0;exitDy=0;entryX=0.5;entryY=0;entryDx=0;entryDy=0;fontSize=16;" edge="1" parent="1" source="CVT4ZNlW-QMvGA7VsB1M-78" target="CVT4ZNlW-QMvGA7VsB1M-41">
          <mxGeometry relative="1" as="geometry" />
        </mxCell>
        <mxCell id="CVT4ZNlW-QMvGA7VsB1M-78" value="&lt;font style=&quot;font-size: 16px&quot;&gt;运动分解&lt;/font&gt;" style="rounded=1;whiteSpace=wrap;html=1;fontSize=20;strokeColor=#6c8ebf;strokeWidth=0.3;fillColor=#dae8fc;" vertex="1" parent="1">
          <mxGeometry x="670" y="230" width="120" height="60" as="geometry" />
        </mxCell>
        <mxCell id="CVT4ZNlW-QMvGA7VsB1M-90" style="edgeStyle=orthogonalEdgeStyle;rounded=0;orthogonalLoop=1;jettySize=auto;html=1;exitX=1;exitY=0.5;exitDx=0;exitDy=0;fontSize=16;" edge="1" parent="1" source="CVT4ZNlW-QMvGA7VsB1M-81">
          <mxGeometry relative="1" as="geometry">
            <mxPoint x="1270" y="340" as="targetPoint" />
          </mxGeometry>
        </mxCell>
        <mxCell id="CVT4ZNlW-QMvGA7VsB1M-81" value="" style="shape=image;html=1;verticalLabelPosition=bottom;verticalAlign=top;imageAspect=0;image=img/clipart/Gear_128x128.png;fontSize=24;strokeColor=default;strokeWidth=0.3;" vertex="1" parent="1">
          <mxGeometry x="1180" y="310" width="50" height="60" as="geometry" />
        </mxCell>
        <mxCell id="CVT4ZNlW-QMvGA7VsB1M-83" value="决策状态机" style="text;strokeColor=none;fillColor=none;align=center;verticalAlign=middle;spacingLeft=4;spacingRight=4;overflow=hidden;points=[[0,0.5],[1,0.5]];portConstraint=eastwest;rotatable=0;fontSize=16;" vertex="1" parent="1">
          <mxGeometry x="1150" y="274.5" width="140" height="30" as="geometry" />
        </mxCell>
        <mxCell id="CVT4ZNlW-QMvGA7VsB1M-84" value="&lt;font style=&quot;font-size: 16px&quot;&gt;连接+平滑处理&lt;/font&gt;" style="text;html=1;strokeColor=none;fillColor=none;align=center;verticalAlign=middle;whiteSpace=wrap;rounded=0;fontSize=24;" vertex="1" parent="1">
          <mxGeometry x="515" y="190" width="110" height="30" as="geometry" />
        </mxCell>
        <mxCell id="CVT4ZNlW-QMvGA7VsB1M-86" value="轨迹预测——&amp;gt;两个维度上的分类问题" style="text;html=1;strokeColor=none;fillColor=none;align=center;verticalAlign=middle;whiteSpace=wrap;rounded=0;fontSize=16;" vertex="1" parent="1">
          <mxGeometry x="680" y="480" width="280" height="30" as="geometry" />
        </mxCell>
        <mxCell id="CVT4ZNlW-QMvGA7VsB1M-91" value="driving strategy" style="rounded=1;whiteSpace=wrap;html=1;fontSize=16;fillColor=#fff2cc;strokeColor=#d6b656;" vertex="1" parent="1">
          <mxGeometry x="1270" y="320" width="100" height="40" as="geometry" />
        </mxCell>
        <mxCell id="CVT4ZNlW-QMvGA7VsB1M-95" style="edgeStyle=orthogonalEdgeStyle;rounded=0;orthogonalLoop=1;jettySize=auto;html=1;exitX=0.5;exitY=0;exitDx=0;exitDy=0;entryX=0.5;entryY=1;entryDx=0;entryDy=0;fontSize=16;" edge="1" parent="1" source="CVT4ZNlW-QMvGA7VsB1M-94" target="CVT4ZNlW-QMvGA7VsB1M-91">
          <mxGeometry relative="1" as="geometry" />
        </mxCell>
        <mxCell id="CVT4ZNlW-QMvGA7VsB1M-94" value="路径规划" style="rounded=1;whiteSpace=wrap;html=1;fontSize=16;strokeColor=#6c8ebf;strokeWidth=0.3;fillColor=#dae8fc;" vertex="1" parent="1">
          <mxGeometry x="1259.9985714285715" y="412" width="120" height="60" as="geometry" />
        </mxCell>
        <mxCell id="CVT4ZNlW-QMvGA7VsB1M-96" value="" style="endArrow=none;dashed=1;html=1;dashPattern=1 3;strokeWidth=2;rounded=0;fontSize=16;" edge="1" parent="1">
          <mxGeometry width="50" height="50" relative="1" as="geometry">
            <mxPoint x="1150" y="600" as="sourcePoint" />
            <mxPoint x="1150" y="80" as="targetPoint" />
          </mxGeometry>
        </mxCell>
        <mxCell id="CVT4ZNlW-QMvGA7VsB1M-97" value="" style="endArrow=none;dashed=1;html=1;dashPattern=1 3;strokeWidth=2;rounded=0;fontSize=16;" edge="1" parent="1">
          <mxGeometry width="50" height="50" relative="1" as="geometry">
            <mxPoint x="1400" y="597" as="sourcePoint" />
            <mxPoint x="1400" y="77" as="targetPoint" />
          </mxGeometry>
        </mxCell>
        <mxCell id="CVT4ZNlW-QMvGA7VsB1M-98" value="" style="endArrow=none;dashed=1;html=1;dashPattern=1 3;strokeWidth=2;rounded=0;fontSize=16;" edge="1" parent="1">
          <mxGeometry width="50" height="50" relative="1" as="geometry">
            <mxPoint x="1150" y="80" as="sourcePoint" />
            <mxPoint x="1400" y="80" as="targetPoint" />
          </mxGeometry>
        </mxCell>
        <mxCell id="CVT4ZNlW-QMvGA7VsB1M-99" value="" style="endArrow=none;dashed=1;html=1;dashPattern=1 3;strokeWidth=2;rounded=0;fontSize=16;" edge="1" parent="1">
          <mxGeometry width="50" height="50" relative="1" as="geometry">
            <mxPoint x="1150" y="600" as="sourcePoint" />
            <mxPoint x="1400" y="600" as="targetPoint" />
          </mxGeometry>
        </mxCell>
        <mxCell id="CVT4ZNlW-QMvGA7VsB1M-100" value="DRL、A*" style="text;html=1;strokeColor=none;fillColor=none;align=center;verticalAlign=middle;whiteSpace=wrap;rounded=0;fontSize=16;" vertex="1" parent="1">
          <mxGeometry x="1280" y="480" width="80" height="30" as="geometry" />
        </mxCell>
        <mxCell id="CVT4ZNlW-QMvGA7VsB1M-101" value="&lt;p style=&quot;line-height: 0.5&quot;&gt;&lt;/p&gt;&lt;h1&gt;&lt;font style=&quot;font-size: 24px&quot;&gt;决策与&lt;/font&gt;&lt;span style=&quot;font-size: 24px&quot;&gt;路径规划&lt;/span&gt;&lt;/h1&gt;&lt;p&gt;&lt;/p&gt;" style="text;html=1;strokeColor=none;fillColor=none;spacing=5;spacingTop=-20;whiteSpace=wrap;overflow=hidden;rounded=0;fontSize=16;align=center;" vertex="1" parent="1">
          <mxGeometry x="1050" y="585" width="420" height="120" as="geometry" />
        </mxCell>
        <mxCell id="CVT4ZNlW-QMvGA7VsB1M-102" value="&lt;p style=&quot;line-height: 0.5&quot;&gt;&lt;/p&gt;&lt;h1&gt;&lt;br&gt;&lt;/h1&gt;&lt;div&gt;&lt;span style=&quot;font-size: 20px&quot;&gt;path planning&lt;/span&gt;&lt;br&gt;&lt;/div&gt;&lt;p&gt;&lt;/p&gt;" style="text;html=1;strokeColor=none;fillColor=none;spacing=5;spacingTop=-20;whiteSpace=wrap;overflow=hidden;rounded=0;fontSize=16;align=center;" vertex="1" parent="1">
          <mxGeometry x="1050" y="570" width="420" height="120" as="geometry" />
        </mxCell>
        <mxCell id="CVT4ZNlW-QMvGA7VsB1M-103" value="&lt;h1&gt;融合多目标跟踪与行为预测的路径规划原型系统&lt;/h1&gt;" style="text;html=1;strokeColor=none;fillColor=none;spacing=5;spacingTop=-20;whiteSpace=wrap;overflow=hidden;rounded=0;fontSize=24;align=center;" vertex="1" parent="1">
          <mxGeometry x="195" y="-50" width="1070" height="90" as="geometry" />
        </mxCell>
      </root>
    </mxGraphModel>
  </diagram>
</mxfile>
